<svg width="48" height="48" viewBox="0 0 48 48" fill="none" xmlns="http://www.w3.org/2000/svg">
<g clip-path="url(#clip0_1_337)">
<g clip-path="url(#clip1_1_337)">
<rect width="48.0004" height="48.0001" fill="url(#paint0_linear_1_337)"/>
</g>
<g filter="url(#filter0_d_1_337)">
<path d="M36 24.3243C25.5586 25.2097 24.862 25.925 24 36.6487C23.1379 25.925 22.4414 25.2097 12 24.3243C22.4414 23.439 23.1379 22.7236 24 12C24.862 22.7236 25.5586 23.439 36 24.3243Z" fill="#1ED760"/>
</g>
<g filter="url(#filter1_d_1_337)">
<path d="M36 16C32.5195 16.2873 32.2873 16.5195 32 20C31.7126 16.5195 31.4805 16.2873 28 16C31.4805 15.7126 31.7126 15.4805 32 12C32.2873 15.4805 32.5195 15.7126 36 16Z" fill="#1ED760"/>
</g>
</g>
<defs>
<filter id="filter0_d_1_337" x="-8" y="-8" width="64" height="64.6487" filterUnits="userSpaceOnUse" color-interpolation-filters="sRGB">
<feFlood flood-opacity="0" result="BackgroundImageFix"/>
<feColorMatrix in="SourceAlpha" type="matrix" values="0 0 0 0 0 0 0 0 0 0 0 0 0 0 0 0 0 0 127 0" result="hardAlpha"/>
<feOffset/>
<feGaussianBlur stdDeviation="10"/>
<feColorMatrix type="matrix" values="0 0 0 0 0.118 0 0 0 0 0.843 0 0 0 0 0.376 0 0 0 1 0"/>
<feBlend mode="normal" in2="BackgroundImageFix" result="effect1_dropShadow_1_337"/>
<feBlend mode="normal" in="SourceGraphic" in2="effect1_dropShadow_1_337" result="shape"/>
</filter>
<filter id="filter1_d_1_337" x="8" y="-8" width="48" height="48" filterUnits="userSpaceOnUse" color-interpolation-filters="sRGB">
<feFlood flood-opacity="0" result="BackgroundImageFix"/>
<feColorMatrix in="SourceAlpha" type="matrix" values="0 0 0 0 0 0 0 0 0 0 0 0 0 0 0 0 0 0 127 0" result="hardAlpha"/>
<feOffset/>
<feGaussianBlur stdDeviation="10"/>
<feColorMatrix type="matrix" values="0 0 0 0 0.658824 0 0 0 0 1 0 0 0 0 0.713726 0 0 0 1 0"/>
<feBlend mode="normal" in2="BackgroundImageFix" result="effect1_dropShadow_1_337"/>
<feBlend mode="normal" in="SourceGraphic" in2="effect1_dropShadow_1_337" result="shape"/>
</filter>
<linearGradient id="paint0_linear_1_337" x1="0" y1="0" x2="48" y2="48" gradientUnits="userSpaceOnUse">
<stop stop-color="#073116"/>
<stop offset="0.5" stop-color="#37516D"/>
<stop offset="1" stop-color="#1D2B3A"/>
</linearGradient>
<clipPath id="clip0_1_337">
<rect width="48" height="48" fill="white"/>
</clipPath>
<clipPath id="clip1_1_337">
<rect width="48.0004" height="48.0001" rx="4.00003" fill="white"/>
</clipPath>
</defs>
</svg>
